<?xml version="1.0" standalone="no"?>
<!DOCTYPE svg PUBLIC "-//W3C//DTD SVG 20010904//EN"
 "http://www.w3.org/TR/2001/REC-SVG-20010904/DTD/svg10.dtd">
<svg version="1.0" xmlns="http://www.w3.org/2000/svg"
 width="3040.000000pt" height="260.000000pt" viewBox="0 0 3040.000000 260.000000"
 preserveAspectRatio="xMidYMid meet">

<g transform="translate(0.000000,260.000000) scale(0.100000,-0.100000)"
fill="#000000" stroke="none">
<path d="M2871 2284 c-163 -44 -325 -176 -427 -351 -90 -153 -143 -325 -151
-493 -6 -115 4 -184 38 -275 30 -80 121 -173 199 -203 l55 -22 -212 3 c-199 2
-214 3 -233 23 -25 25 -243 536 -232 545 4 4 24 12 44 19 102 32 219 161 255
279 27 86 24 222 -6 288 -42 94 -128 152 -254 173 -97 16 -491 13 -530 -4 -83
-34 -116 -136 -61 -187 22 -20 38 -25 112 -29 l88 -5 -186 -455 c-102 -250
-206 -494 -230 -543 -81 -160 -158 -238 -255 -256 -78 -15 -141 3 -191 53 -52
51 -68 106 -61 199 17 208 192 365 447 402 58 9 122 21 143 27 45 13 87 59 87
94 0 165 -273 187 -545 45 -247 -128 -405 -371 -405 -620 0 -138 37 -238 123
-328 168 -178 481 -176 690 4 123 105 165 182 333 593 59 146 110 269 114 273
4 4 69 -144 146 -330 157 -380 163 -390 289 -453 l70 -35 263 -3 c248 -3 266
-2 306 17 48 24 78 68 78 116 0 35 -17 75 -32 75 -6 0 -10 4 -10 9 0 4 19 11
43 14 24 3 49 9 57 12 11 3 27 -17 55 -67 50 -90 87 -134 136 -159 35 -17 61
-19 309 -19 252 0 274 1 310 20 64 33 93 95 70 151 -23 54 -46 59 -292 59
-263 0 -287 7 -338 86 l-30 48 58 60 c171 179 272 438 273 697 0 111 -12 171
-53 253 -85 169 -270 250 -457 200z m176 -252 c130 -92 97 -428 -66 -674 -52
-79 -42 -81 -110 28 -46 73 -82 93 -140 76 -56 -17 -76 -45 -76 -106 0 -38 8
-67 33 -115 18 -35 31 -66 28 -68 -15 -15 -77 11 -109 46 -57 63 -71 167 -41
321 43 230 160 431 287 495 65 33 145 32 194 -3z m-1111 -16 c34 -34 38 -50
35 -121 -7 -112 -84 -175 -248 -200 l-43 -7 61 149 c34 81 67 163 75 181 11
28 18 32 49 32 29 0 45 -8 71 -34z"/>
<path d="M7184 1942 c-45 -29 -66 -59 -104 -156 l-35 -86 -48 0 c-94 0 -157
-49 -157 -122 0 -51 35 -88 84 -88 l34 0 -74 -182 c-41 -101 -74 -193 -74
-206 0 -49 28 -92 72 -112 36 -16 66 -20 176 -20 146 0 184 9 220 55 28 35 29
94 3 126 -17 22 -29 24 -110 28 -107 4 -104 -18 -24 178 l55 133 62 0 c103 0
171 51 169 127 -2 52 -39 83 -99 83 -24 0 -44 4 -44 9 0 5 11 33 25 63 31 67
32 118 2 153 -30 36 -91 43 -133 17z"/>
<path d="M3863 1811 c-25 -16 -50 -57 -117 -190 -47 -93 -88 -185 -91 -204
-14 -71 46 -127 119 -113 38 7 92 60 102 101 3 14 10 25 14 25 4 0 22 -32 40
-71 28 -61 32 -77 24 -108 -14 -56 -54 -71 -187 -71 -125 0 -165 -13 -197 -65
-32 -53 -21 -112 27 -134 38 -17 318 -14 381 4 69 21 140 80 177 146 26 46 30
64 29 124 0 86 -18 128 -108 260 l-66 96 0 84 c0 99 -14 124 -75 131 -29 4
-49 0 -72 -15z"/>
<path d="M4640 1709 c-78 -13 -172 -62 -230 -120 -96 -96 -152 -262 -130 -392
18 -114 77 -178 192 -212 47 -13 94 -16 263 -13 113 2 205 2 205 1 0 -1 -49
-123 -110 -272 -125 -306 -130 -332 -78 -376 27 -23 39 -26 78 -22 78 9 97 40
249 416 l133 331 20 -25 c22 -28 102 -55 163 -55 164 0 291 74 359 209 80 156
71 384 -17 480 -67 73 -208 81 -286 15 -29 -24 -30 -24 -40 -5 -16 30 -76 46
-121 32 -62 -18 -55 -5 -235 -444 -26 -65 -51 -114 -54 -109 -18 27 -58 32
-240 32 -201 0 -231 5 -249 45 l-11 23 152 4 c126 3 160 7 197 24 137 62 171
232 70 347 -64 73 -167 104 -280 86z m909 -189 c49 -26 52 -132 5 -227 -34
-71 -80 -105 -149 -111 -50 -4 -57 -2 -85 26 -25 25 -28 35 -21 54 71 184 103
241 146 258 28 12 83 12 104 0z m-825 -10 c20 -7 26 -17 26 -39 0 -35 -8 -39
-110 -47 -91 -8 -101 2 -52 49 45 43 89 55 136 37z"/>
<path d="M6190 1703 c-146 -51 -262 -189 -306 -363 -38 -149 17 -290 133 -345
78 -37 246 -31 308 10 l35 24 36 -24 c47 -32 86 -38 190 -33 96 5 127 21 157
81 15 30 17 43 8 70 -15 45 -41 56 -137 59 l-82 3 79 195 c97 242 100 284 23
316 -44 18 -105 4 -141 -32 l-25 -25 -34 30 c-58 51 -155 65 -244 34z m178
-203 c30 -28 28 -44 -18 -162 -52 -131 -78 -158 -154 -158 -63 0 -85 18 -93
78 -11 79 52 195 131 243 42 26 106 25 134 -1z"/>
<path d="M7710 1703 c-146 -51 -262 -189 -306 -363 -38 -149 17 -290 133 -345
78 -37 246 -31 308 10 l35 24 36 -24 c47 -32 86 -38 190 -33 96 5 127 21 157
81 15 30 17 43 8 70 -15 45 -41 56 -137 59 l-82 3 79 195 c97 242 100 284 23
316 -44 18 -105 4 -141 -32 l-25 -25 -34 30 c-58 51 -155 65 -244 34z m178
-203 c30 -28 28 -44 -18 -162 -52 -131 -78 -158 -154 -158 -63 0 -85 18 -93
78 -11 79 52 195 131 243 42 26 106 25 134 -1z"/>
<path d="M8864 1702 c-28 -10 -63 -27 -79 -39 l-29 -21 -27 29 c-22 24 -35 29
-74 29 -60 0 -100 -22 -124 -68 -46 -90 -231 -564 -231 -591 0 -73 98 -115
168 -72 44 28 61 59 144 265 81 202 120 258 191 271 46 9 87 -14 87 -48 0 -13
-25 -84 -55 -158 -30 -74 -55 -145 -55 -158 0 -42 39 -109 83 -141 41 -30 42
-30 169 -30 137 0 163 7 206 53 36 38 39 87 9 123 -24 27 -30 29 -120 34 l-95
5 61 149 c69 172 76 228 38 290 -49 78 -169 113 -267 78z"/>
</g>
</svg>
